<?xml version="1.0" standalone="no"?>
<!DOCTYPE svg PUBLIC "-//W3C//DTD SVG 20010904//EN"
 "http://www.w3.org/TR/2001/REC-SVG-20010904/DTD/svg10.dtd">
<svg version="1.0" xmlns="http://www.w3.org/2000/svg"
 width="1024.000000pt" height="1024.000000pt" viewBox="0 0 1024.000000 1024.000000"
 preserveAspectRatio="xMidYMid meet">

<g transform="translate(0.000000,1024.000000) scale(0.100000,-0.100000)"
fill="#000000" stroke="none">
<path d="M5021 8759 c-325 -42 -646 -290 -778 -603 -73 -171 -96 -398 -59
-560 38 -160 144 -296 291 -373 44 -23 98 -60 120 -83 80 -82 233 -163 370
-196 76 -18 231 -18 316 0 274 58 507 286 585 571 30 112 29 289 -2 435 l-5
26 158 22 c107 16 166 29 183 41 61 43 64 126 7 162 -26 15 -43 18 -87 13
l-56 -6 -47 71 c-104 157 -264 296 -441 383 -191 93 -359 123 -555 97z m354
-219 c162 -52 287 -134 404 -265 74 -83 87 -104 69 -109 -7 -2 -123 -18 -258
-36 -455 -59 -456 -59 -492 -131 -15 -27 -18 -61 -18 -174 0 -212 -29 -298
-126 -384 -98 -86 -252 -111 -368 -58 -82 38 -147 103 -186 189 -31 66 -34 84
-38 184 -5 137 17 237 82 369 79 159 192 275 345 353 141 73 226 92 391 88 96
-3 141 -9 195 -26z m310 -684 c29 -150 12 -280 -53 -416 -90 -187 -303 -320
-513 -320 -65 0 -198 28 -241 51 -20 11 -17 13 40 35 162 61 284 195 327 361
8 32 15 105 16 168 2 173 -18 156 204 186 105 14 193 22 198 19 4 -3 14 -41
22 -84z"/>
<path d="M4525 6952 c-151 -52 -272 -184 -314 -342 -6 -25 -29 -151 -51 -280
-85 -507 -132 -780 -153 -890 l-22 -115 -5 640 c-5 634 -5 640 -27 695 -52
125 -139 210 -268 261 l-60 24 -890 0 c-489 0 -933 -3 -987 -7 -79 -5 -110
-12 -160 -36 -115 -54 -206 -160 -237 -277 -6 -26 -11 -306 -12 -785 -1 -724
-1 -747 19 -801 11 -31 31 -74 45 -95 33 -52 124 -137 175 -163 94 -48 128
-51 583 -51 l427 0 4 -132 c3 -110 8 -142 27 -183 36 -81 104 -140 184 -159
15 -3 27 -10 27 -14 0 -4 -19 -20 -41 -37 -60 -44 -245 -238 -316 -331 -172
-225 -301 -479 -380 -744 -24 -81 -28 -112 -28 -215 0 -114 1 -123 30 -173 35
-64 71 -96 145 -131 53 -25 63 -26 271 -29 l216 -4 6 -91 c11 -169 71 -344
165 -481 49 -71 172 -198 222 -229 l35 -22 -178 -5 c-174 -5 -179 -6 -198 -29
-15 -18 -19 -36 -17 -70 3 -39 8 -49 37 -68 l35 -23 2680 2 2681 3 97 27 c252
69 455 212 586 413 52 79 112 219 132 305 18 81 23 242 11 328 -28 192 -119
371 -262 515 -37 37 -62 70 -56 72 7 2 34 6 61 9 106 13 176 88 176 188 0 141
-222 369 -490 503 -162 81 -417 145 -579 145 l-61 0 0 38 c0 66 -28 170 -68
254 -22 46 -139 262 -261 482 -121 219 -221 400 -221 402 0 2 37 4 83 4 189 0
301 67 343 206 17 57 20 561 3 634 -15 67 -51 114 -106 141 -41 20 -67 24
-168 27 -264 8 -437 -55 -607 -221 l-80 -77 -62 30 c-49 23 -97 34 -241 56
-314 46 -358 52 -470 69 -60 9 -126 21 -145 26 -26 9 -121 98 -385 363 -245
247 -366 362 -405 384 -129 74 -375 106 -495 64z m310 -187 c97 -27 159 -81
483 -416 173 -179 329 -335 347 -348 53 -36 100 -46 512 -111 222 -35 406 -69
429 -80 22 -9 51 -32 64 -49 19 -27 22 -42 18 -93 -4 -56 -8 -64 -45 -99 -23
-21 -54 -41 -70 -45 -24 -6 -102 2 -343 36 -36 5 -153 21 -260 35 -358 47
-439 63 -510 97 -56 28 -105 72 -346 311 -154 153 -287 283 -295 288 -52 33
-139 -18 -139 -81 0 -34 18 -55 249 -292 l94 -96 -7 -57 c-3 -32 -27 -164 -52
-294 -46 -241 -49 -285 -16 -313 43 -38 26 -35 517 -88 301 -33 351 -44 407
-90 60 -50 84 -114 118 -320 17 -102 69 -410 116 -685 59 -344 83 -513 79
-540 -20 -134 -166 -213 -290 -156 -43 19 -90 68 -107 110 -12 30 -64 319
-148 826 -33 198 -63 367 -65 376 -3 9 -16 26 -29 38 -26 24 11 19 -586 82
-211 22 -419 46 -462 54 -185 32 -310 154 -339 333 -14 83 -15 76 75 562 35
195 85 475 110 621 49 283 56 313 92 370 76 121 223 163 399 114z m-1179 -40
c57 -28 105 -88 123 -150 7 -28 11 -287 11 -848 l0 -808 -1032 3 -1033 3 -50
27 c-63 33 -98 70 -127 133 l-23 50 0 700 c0 540 3 710 13 742 17 56 95 140
147 158 33 12 200 14 981 15 l940 0 50 -25z m3834 -665 c13 -8 16 -51 18 -269
4 -360 11 -351 -246 -351 l-159 0 -66 34 c-36 19 -92 43 -124 52 -32 10 -59
18 -60 19 -1 0 4 23 12 50 18 58 19 114 4 166 -12 37 -11 39 38 101 79 100
222 186 338 201 62 8 231 6 245 -3z m-2232 -457 c65 -53 169 -104 259 -127 56
-15 290 -49 813 -120 102 -14 201 -27 220 -28 l35 -3 51 -190 c173 -638 219
-808 235 -880 37 -160 19 -300 -69 -530 -124 -326 -168 -429 -198 -464 l-32
-36 -138 -5 c-77 -3 -140 -5 -142 -4 -2 1 12 25 32 53 63 92 67 167 26 404
-11 62 -54 310 -95 552 -112 660 -113 667 -129 713 -46 130 -170 241 -311 281
-41 11 -562 71 -625 71 -69 0 -69 0 -30 190 19 93 36 170 38 170 2 0 29 -21
60 -47z m1613 -263 c62 -23 131 -71 167 -117 31 -41 437 -753 509 -893 58
-114 77 -193 70 -294 -7 -110 -52 -195 -227 -431 -78 -104 -220 -299 -316
-432 -96 -133 -196 -260 -221 -283 -51 -45 -128 -84 -194 -99 -43 -10 -1719
-16 -1719 -7 0 44 -37 265 -56 336 -143 530 -673 881 -1219 807 -258 -36 -490
-147 -676 -324 -205 -196 -329 -433 -375 -715 l-17 -108 -142 0 c-136 0 -143
1 -168 24 -14 13 -29 36 -33 51 -14 54 4 169 45 295 136 414 422 799 770 1038
l83 57 879 1 c595 1 879 -1 879 -8 0 -6 -11 -40 -24 -77 -36 -101 -50 -206
-43 -334 10 -192 73 -355 193 -505 76 -95 153 -158 262 -212 145 -73 145 -73
732 -78 376 -3 540 0 578 8 65 14 141 72 178 136 47 81 243 602 270 719 28
121 24 310 -9 440 -48 192 -256 961 -266 989 -6 15 -11 32 -11 37 0 11 35 4
101 -21z m-2861 -412 c0 -20 -20 -25 -21 -5 0 6 -2 23 -5 37 -4 24 -3 24 11 6
8 -11 15 -28 15 -38z m183 -236 c144 -107 224 -125 780 -176 81 -7 150 -16
154 -19 3 -4 -2 -18 -11 -32 l-16 -25 -1121 0 c-1233 0 -1165 -3 -1188 61 -10
30 -16 221 -7 230 2 2 309 3 680 2 l676 -3 53 -38z m1212 -224 c3 -7 45 -254
94 -548 50 -294 97 -554 105 -576 8 -23 26 -61 41 -84 l27 -43 -63 7 c-232 25
-398 133 -496 321 -64 125 -77 180 -78 330 0 116 3 139 28 212 49 145 51 149
116 183 76 41 108 87 137 198 2 7 20 12 44 12 23 0 43 -5 45 -12z m2647 -609
c106 -21 243 -66 323 -106 167 -84 386 -281 360 -323 -4 -6 -128 -10 -318 -10
-411 -1 -527 -17 -703 -99 -127 -60 -198 -114 -341 -256 -109 -110 -145 -139
-212 -174 -45 -23 -81 -39 -81 -36 0 3 13 23 29 43 55 71 540 741 585 809 25
37 55 94 67 127 l23 58 85 -6 c47 -4 130 -16 183 -27z m-4065 -134 c318 -67
571 -278 685 -572 34 -87 64 -213 74 -305 l6 -68 -982 0 -982 0 7 48 c67 450
390 805 815 896 87 19 291 20 377 1z m4328 -530 c190 -51 359 -192 445 -370
56 -115 73 -190 73 -320 0 -207 -67 -371 -212 -515 -244 -242 -550 -295 -851
-148 -90 44 -116 63 -185 133 -118 120 -181 237 -211 391 -51 271 54 536 279
701 26 19 49 34 51 32 5 -7 156 -321 156 -326 0 -2 -16 -21 -35 -41 -53 -56
-78 -130 -79 -232 -1 -72 3 -94 26 -142 76 -162 249 -249 417 -208 106 25 208
117 248 222 24 66 22 201 -4 260 -65 143 -186 221 -339 219 -45 0 -64 3 -64
12 0 6 -34 79 -75 160 -41 82 -73 152 -71 156 3 4 31 13 63 20 32 7 63 15 68
17 25 9 246 -6 300 -21z m-1129 -522 c-3 -16 -9 -77 -12 -138 -15 -265 88
-512 293 -704 l86 -81 -1647 0 -1648 0 49 38 c140 111 264 301 318 486 22 78
46 243 42 292 -2 19 20 19 1118 24 l1120 5 90 32 c50 17 110 40 135 51 60 27
63 27 56 -5z m967 -7 c161 -58 152 -288 -12 -337 -53 -16 -116 4 -162 50 -73
72 -73 174 -1 246 53 52 107 65 175 41z m-4876 -160 c15 -116 45 -186 110
-256 150 -162 396 -185 570 -53 51 39 118 133 138 194 10 28 20 83 24 122 l6
72 174 3 174 2 -6 -102 c-11 -200 -91 -375 -239 -518 -218 -212 -568 -273
-843 -146 -198 91 -351 265 -419 476 -26 81 -46 185 -46 243 l0 36 103 3 c56
2 134 3 173 4 l71 1 10 -81z m651 35 c6 -87 -53 -186 -133 -222 -150 -68 -325
45 -325 210 0 39 4 51 18 54 9 3 112 4 227 3 l210 -1 3 -44z"/>
<path d="M2603 6451 c-93 -24 -153 -100 -162 -208 l-6 -66 -68 -28 c-37 -15
-93 -42 -124 -61 -73 -43 -187 -156 -241 -239 -48 -74 -98 -202 -108 -277 -6
-48 -7 -50 -44 -56 -26 -4 -47 -16 -64 -37 -28 -33 -32 -64 -14 -104 26 -57
-3 -55 885 -55 901 0 845 -4 879 61 29 56 -13 129 -78 134 -32 2 -33 4 -39 53
-19 151 -85 279 -209 402 -91 90 -157 135 -267 179 l-68 28 -6 65 c-13 148
-133 243 -266 209z m71 -174 c28 -20 18 -61 -16 -65 -36 -4 -53 26 -32 56 18
26 24 27 48 9z m111 -278 c28 -6 88 -29 135 -52 157 -77 290 -243 306 -384 l6
-48 -571 1 c-315 1 -575 4 -578 8 -11 11 15 96 52 171 62 127 160 216 308 277
102 43 221 53 342 27z"/>
<path d="M1689 4401 c-38 -39 -39 -87 -3 -130 l26 -31 298 0 299 0 28 24 c38
33 40 102 4 140 l-24 26 -300 0 -299 0 -29 -29z"/>
<path d="M1100 3901 c-42 -41 -42 -100 -1 -142 l29 -29 472 0 472 0 30 30 c27
28 30 36 25 77 -3 28 -13 54 -26 67 -21 21 -26 21 -497 24 l-475 3 -29 -30z"/>
<path d="M1500 3401 c-24 -23 -30 -38 -30 -71 0 -33 6 -48 30 -71 l30 -30 165
3 c163 3 165 3 191 30 37 37 37 99 0 136 -26 27 -28 27 -191 30 l-165 3 -30
-30z"/>
</g>
</svg>
